<svg t="1609922007562" class="icon" viewBox="0 0 1024 1024" version="1.1" xmlns="http://www.w3.org/2000/svg" p-id="1471" width="20" height="20"><path d="M512 0c282.7776 0 512 229.2224 512 512 0 282.7776-229.2224 512-512 512C229.2224 1024 0 794.7776 0 512 0 229.2224 229.2224 0 512 0z m0 51.2C257.501867 51.2 51.2 257.501867 51.2 512s206.301867 460.8 460.8 460.8 460.8-206.301867 460.8-460.8S766.498133 51.2 512 51.2z m221.866667 256l-89.873067 336.7936L307.2 733.866667l89.873067-336.7936L733.866667 307.2z m-72.2944 72.277333l-222.685867 59.409067-59.409067 222.685867 222.685867-59.409067 59.409067-222.685867zM520.533333 494.933333a25.6 25.6 0 1 1 0 51.2 25.6 25.6 0 0 1 0-51.2z" p-id="1472"></path></svg>