<svg t="1609926006303" class="icon" viewBox="0 0 1024 1024" version="1.1" xmlns="http://www.w3.org/2000/svg" p-id="2771" width="20" height="20"><path d="M704 329.152C704 209.365 622.848 128 512 128s-192 81.365-192 201.152c0 125.61 87.147 225.515 192 225.515s192-99.904 192-225.515z m42.667 0c0 147.563-104.491 268.181-234.667 268.181S277.333 476.715 277.333 329.152c0-147.605 104.491-243.819 234.667-243.819s234.667 96.214 234.667 243.819zM512.107 640c408.96 0 404.864 256.512 404.864 256.512 3.093 23.275-13.483 42.155-37.099 42.155H144.32c-23.573 0-41.088-19.136-37.077-42.155 0 0-4.096-256.512 404.864-256.512zM149.909 896l0.064 3.861-0.704 3.968c0.683-3.882-2.837-7.829-4.949-7.829h735.552c-2.155 0-5.504 3.819-5.205 6.144l-0.427-3.157 0.064-3.158c0-0.853-0.128-3.349-0.533-7.125a161.813 161.813 0 0 0-4.267-23.083 192.96 192.96 0 0 0-35.243-71.104c-53.93-69.056-155.626-111.85-322.154-111.85-166.55 0-268.224 42.794-322.176 111.85a192.96 192.96 0 0 0-35.243 71.104c-2.176 8.427-3.541 16.192-4.267 23.083a81.045 81.045 0 0 0-0.512 7.296z" p-id="2772"></path></svg>